<?xml version="1.0" standalone="no"?>
<!DOCTYPE svg PUBLIC "-//W3C//DTD SVG 20010904//EN"
 "http://www.w3.org/TR/2001/REC-SVG-20010904/DTD/svg10.dtd">
<svg version="1.0" xmlns="http://www.w3.org/2000/svg"
 width="50px" height="50px" viewBox="0 0 640.000000 1280.000000"
 preserveAspectRatio="xMidYMid meet">
<metadata>
Created by potrace 1.15, written by Peter Selinger 2001-2017
</metadata>
<g transform="translate(0.000000,1280.000000) scale(0.100000,-0.100000)"
fill="#000000" stroke="none">
<path d="M3864 12785 c-8 -20 8 -58 47 -106 44 -56 36 -109 -17 -109 -49 0
-73 -38 -96 -150 -29 -145 -32 -184 -19 -237 15 -58 9 -65 -90 -101 -99 -37
-102 -45 -106 -237 -1 -82 -8 -181 -14 -218 -8 -51 -8 -123 0 -275 6 -114 13
-252 16 -307 10 -186 7 -580 -4 -670 -19 -157 -46 -594 -48 -770 -1 -93 -4
-222 -6 -285 -3 -63 -9 -279 -15 -480 -5 -201 -15 -414 -22 -475 -10 -87 -10
-167 0 -385 21 -467 23 -704 9 -1036 -14 -326 -14 -364 -9 -564 1 -63 -5 -187
-13 -275 -36 -352 -49 -613 -42 -835 6 -206 5 -224 -25 -439 l-31 -223 20
-217 c30 -320 46 -614 42 -785 l-1 -49 -37 6 c-35 6 -40 3 -90 -51 -76 -81
-104 -132 -119 -219 -7 -41 -24 -99 -38 -129 -14 -30 -28 -71 -31 -92 -4 -20
-11 -51 -16 -67 -15 -51 -133 -156 -259 -231 -147 -87 -303 -227 -360 -323
-22 -38 -52 -113 -70 -176 -35 -118 -57 -166 -211 -435 -163 -284 -268 -403
-670 -757 -64 -57 -136 -128 -159 -159 -39 -49 -45 -65 -56 -137 -6 -45 -9
-90 -5 -99 3 -10 43 -48 88 -86 74 -63 96 -75 249 -136 127 -51 222 -81 392
-122 123 -30 362 -95 531 -145 279 -82 325 -93 516 -119 116 -16 232 -30 260
-30 42 0 144 16 438 69 26 4 50 4 53 0 8 -14 56 -10 68 5 17 21 73 28 80 11 7
-19 55 -20 62 -1 3 7 24 17 46 20 34 6 45 3 65 -16 l25 -23 20 25 c11 13 25
25 31 26 7 0 57 4 112 8 115 8 390 60 415 78 10 7 51 38 91 69 64 49 79 56
107 52 23 -4 39 0 52 12 22 20 26 65 8 83 -9 9 -8 21 1 52 l12 40 38 -20 c21
-10 41 -17 44 -14 10 10 -11 52 -71 142 -32 48 -75 119 -97 157 -43 78 -167
272 -357 560 -118 179 -188 315 -188 365 0 12 14 48 32 79 l32 58 -37 124
c-21 68 -49 182 -62 254 -25 132 -41 168 -111 245 -12 14 -54 90 -94 169 -39
78 -81 153 -94 166 -12 12 -47 30 -77 39 -76 25 -96 50 -104 133 -4 37 -29
154 -55 258 -80 317 -83 342 -76 495 3 74 15 218 26 320 24 226 36 615 56
1690 12 728 40 1509 60 1685 9 85 21 502 38 1365 8 410 20 819 26 910 5 91 9
255 8 365 -1 110 3 265 10 345 6 80 12 321 12 535 0 215 4 426 10 470 6 51 6
118 1 184 -7 80 -6 119 5 172 13 62 13 81 -2 172 -21 132 -21 144 8 175 33 37
53 70 67 115 7 21 29 61 48 90 l35 52 -5 115 c-5 89 -3 121 8 140 20 35 19 80
-1 80 -9 0 -41 -27 -72 -60 l-57 -60 -31 83 -31 82 -57 3 c-44 2 -58 0 -62
-13z m236 -243 c0 -7 -5 -22 -11 -34 -6 -11 -15 -50 -20 -87 -10 -71 -56 -177
-110 -249 -25 -34 -37 -42 -58 -40 -24 3 -26 7 -29 58 -7 112 44 228 153 349
45 49 50 52 62 35 7 -10 13 -24 13 -32z m-220 -483 c26 -13 39 -23 31 -26 -19
-8 -89 17 -95 33 -7 19 12 17 64 -7z m200 -9392 c0 -13 -84 77 -101 108 -5 11
15 -6 45 -38 31 -32 56 -63 56 -70z"/>
</g>
</svg>
